<?xml version="1.0" encoding="iso-8859-1"?>
<!-- Generator: Adobe Illustrator 19.0.0, SVG Export Plug-In . SVG Version: 6.00 Build 0)  -->
<svg version="1.1" id="Capa_1" xmlns="http://www.w3.org/2000/svg" xmlns:xlink="http://www.w3.org/1999/xlink" x="0px" y="0px"
	 viewBox="0 0 491.839 491.839" style="enable-background:new 0 0 491.839 491.839;" xml:space="preserve">
<g>
	<circle style="fill:#00ACEA;" cx="384" cy="363.102" r="99.265"/>
	<g>
		<path style="fill:#083863;" d="M281.6,67.918H150.988c-4.328,0-7.837-3.509-7.837-7.837s3.509-7.837,7.837-7.837H281.6
			c4.328,0,7.837,3.509,7.837,7.837S285.928,67.918,281.6,67.918z"/>
		<path style="fill:#083863;" d="M321.306,99.265c-4.328,0-7.837-3.509-7.837-7.837V28.735c0-4.328,3.509-7.837,7.837-7.837
			s7.837,3.509,7.837,7.837v62.694C329.143,95.757,325.634,99.265,321.306,99.265z"/>
		<path style="fill:#083863;" d="M112.327,99.265c-4.328,0-7.837-3.509-7.837-7.837V28.735c0-4.328,3.509-7.837,7.837-7.837
			c4.328,0,7.837,3.509,7.837,7.837v62.694C120.163,95.757,116.655,99.265,112.327,99.265z"/>
		<path style="fill:#083863;" d="M373.551,167.184H60.082c-4.328,0-7.837-3.509-7.837-7.837c0-4.328,3.509-7.837,7.837-7.837
			h313.469c4.328,0,7.837,3.509,7.837,7.837C381.388,163.675,377.879,167.184,373.551,167.184z"/>
		<path style="fill:#083863;" d="M300.408,229.878H60.082c-4.328,0-7.837-3.509-7.837-7.837c0-4.328,3.509-7.837,7.837-7.837
			h240.327c4.328,0,7.837,3.509,7.837,7.837C308.245,226.369,304.736,229.878,300.408,229.878z"/>
		<path style="fill:#083863;" d="M195.918,292.571H60.082c-4.328,0-7.837-3.509-7.837-7.837c0-4.328,3.509-7.837,7.837-7.837
			h135.837c4.328,0,7.837,3.509,7.837,7.837C203.755,289.063,200.246,292.571,195.918,292.571z"/>
		<path style="fill:#083863;" d="M433.633,268.539V60.082c0-4.328-3.509-7.837-7.837-7.837h-73.143
			c-4.328,0-7.837,3.509-7.837,7.837s3.509,7.837,7.837,7.837h65.306v193.829c-10.917-3.81-22.397-5.752-33.959-5.747
			c-59.151,0-107.102,47.951-107.102,107.102l0,0c-0.005,11.562,1.937,23.043,5.747,33.959H15.673V67.918h54.857
			c4.328,0,7.837-3.509,7.837-7.837s-3.509-7.837-7.837-7.837H7.837C3.509,52.245,0,55.754,0,60.082v344.816
			c0,4.328,3.509,7.837,7.837,7.837h281.6c27.017,52.621,91.575,73.377,144.196,46.36c52.621-27.017,73.377-91.575,46.36-144.196
			C469.765,294.979,453.552,278.766,433.633,268.539z M384,454.531c-50.495,0-91.429-40.934-91.429-91.429
			s40.934-91.429,91.429-91.429s91.429,40.934,91.429,91.429l0,0C475.143,413.478,434.376,454.245,384,454.531z"/>
		<path style="fill:#083863;" d="M432.588,376.163H384c-4.328,0-7.837-3.509-7.837-7.837v-62.694c0-4.328,3.509-7.837,7.837-7.837
			s7.837,3.509,7.837,7.837v54.857h40.751c4.328,0,7.837,3.509,7.837,7.837S436.916,376.163,432.588,376.163z"/>
	</g>
</g>
<g>
</g>
<g>
</g>
<g>
</g>
<g>
</g>
<g>
</g>
<g>
</g>
<g>
</g>
<g>
</g>
<g>
</g>
<g>
</g>
<g>
</g>
<g>
</g>
<g>
</g>
<g>
</g>
<g>
</g>
</svg>
