<svg viewBox="-28 0 511 512" xmlns="http://www.w3.org/2000/svg"><path d="m228.082031 211c-24.902343 0-45 20.097656-45 45s20.097657 45 45 45c24.898438 0 45-20.097656 45-45s-20.101562-45-45-45zm0 0" fill="#c6e2e7"/><path d="m448.878906 128.5c-28.5-49.800781-126.597656-33.601562-220.796875 9.601562-17.703125 8.097657-35.402343 17.097657-52.5 26.996094-57.003906 33.003906-105.902343 72.300782-138 111-34.800781 42.601563-45.601562 80.703125-30.300781 107.402344 12.296875 21.597656 37.800781 30.601562 70.199219 30.601562 42.601562 0 97.199219-15.601562 150.601562-40.203124 17.996094-8.097657 35.398438-17.097657 52.5-26.996094 57-33.003906 105.898438-72.300782 137.996094-111 34.800781-42.601563 45.601563-80.703125 30.300781-107.402344zm-53.699218 88.199219c-29.398438 36-75.601563 73.199219-129.597657 104.398437-12.601562 7.203125-25.203125 13.800782-37.5 19.800782-96.300781 47.101562-179.101562 54.601562-195 27.601562-8.402343-14.699219 2.097657-42.003906 27.898438-73.199219 29.398437-36 75.601562-73.203125 129.601562-104.402343 12.597657-7.199219 25.199219-13.800782 37.5-19.800782 60-29.097656 114.296875-43.199218 150.898438-43.199218 22.203125 0 38.101562 5.402343 44.101562 15.601562 8.398438 14.699219-2.101562 42-27.902343 73.199219zm0 0" fill="#ff8f97"/><path d="m418.578125 235.902344c-32.097656 38.699218-80.996094 77.996094-137.996094 111-17.101562 9.898437-34.503906 18.898437-52.5 26.996094v-32.996094c12.296875-6 24.898438-12.601563 37.5-19.800782 54-31.203124 100.199219-68.402343 129.597657-104.402343 25.800781-31.199219 36.300781-58.5 27.902343-73.199219-6-10.199219-21.898437-15.601562-44.101562-15.601562-36.601563 0-90.898438 14.101562-150.898438 43.199218v-32.996094c94.199219-43.203124 192.296875-59.402343 220.796875-9.601562 15.300782 26.699219 4.5 64.800781-30.300781 107.402344zm0 0" fill="#f66"/><path d="m418.578125 276.097656c-32.097656-38.699218-80.996094-77.996094-137.996094-111-17.101562-9.898437-34.800781-18.898437-52.5-26.996094-94.203125-43.203124-192.003906-59.402343-220.800781-9.601562-15.300781 26.699219-4.5 64.800781 30.300781 107.402344 32.097657 38.699218 80.996094 77.996094 137.996094 111 17.101563 9.898437 34.503906 18.898437 52.5 26.996094 53.402344 24.601562 108 40.203124 150.601563 40.203124 32.398437 0 57.902343-9 70.199218-30.601562 15.300782-26.699219 4.5-64.800781-30.300781-107.402344zm4.503906 92.402344c-15.601562 27-98.699219 19.5-195-27.597656-12.300781-6-24.902343-12.601563-37.5-19.800782-54-31.203124-100.203125-68.402343-129.601562-104.402343-25.800781-31.199219-36.300781-58.5-27.898438-73.199219 6-10.199219 21.898438-15.601562 44.097657-15.601562 36.601562 0 91.199218 14.101562 150.902343 43.199218 12.296875 6 24.898438 12.601563 37.5 19.800782 54 31.203124 100.199219 68.402343 129.597657 104.402343 25.800781 31.199219 36.300781 58.5 27.902343 73.199219zm0 0" fill="#00eed0"/><path d="m448.878906 383.5c-12.296875 21.597656-37.796875 30.601562-70.195312 30.601562-42.601563 0-97.203125-15.601562-150.601563-40.203124v-32.996094c96.300781 47.097656 179.398438 54.597656 195 27.597656 8.398438-14.699219-2.101562-42-27.902343-73.199219-29.398438-36-75.601563-73.199219-129.597657-104.398437-12.601562-7.203125-25.203125-13.800782-37.5-19.800782v-33c17.699219 8.097657 35.398438 17.097657 52.5 26.996094 57 33.003906 105.898438 72.300782 137.996094 111 34.800781 42.601563 45.601563 80.703125 30.300781 107.402344zm0 0" fill="#00ddc1"/><path d="m228.082031 0c-68.101562 0-105 132.398438-105 256s36.898438 256 105 256c68.101563 0 105-132.398438 105-256s-36.898437-256-105-256zm0 482c-35.402343 0-75-97.300781-75-226s39.597657-226 75-226c35.398438 0 75 97.300781 75 226s-39.601562 226-75 226zm0 0" fill="#ffe470"/><path d="m333.082031 256c0 123.601562-36.898437 256-105 256v-30c35.398438 0 75-97.300781 75-226s-39.601562-226-75-226v-30c68.101563 0 105 132.398438 105 256zm0 0" fill="#ffd400"/><path d="m183.082031 90c-16.539062 0-30-13.460938-30-30s13.460938-30 30-30c16.535157 0 30 13.460938 30 30s-13.464843 30-30 30zm0 0" fill="#68544f"/><path d="m55.710938 407.449219c-8.3125-14.429688-3.265626-32.746094 10.988281-40.957031 14.460937-8.328126 32.746093-3.300782 40.984375 10.972656 8.261718 14.324218 3.339844 32.710937-10.984375 40.984375-14.277344 8.25-32.632813 3.453125-40.988281-11zm0 0" fill="#68544f"/><path d="m404.449219 340.492188c-14.25-8.226563-19.3125-26.519532-10.957031-40.972657 8.050781-14.023437 26.285156-19.429687 40.96875-10.972656 14.328124 8.292969 19.234374 26.675781 10.972656 40.988281-8.277344 14.339844-26.628906 19.269532-40.984375 10.957032zm0 0" fill="#53433f"/><path d="m273.082031 256c0 24.902344-20.101562 45-45 45v-90c24.898438 0 45 20.097656 45 45zm0 0" fill="#a8d3d8"/></svg>