<svg height="512pt" viewBox="-1 0 512 512.00001" width="512pt" xmlns="http://www.w3.org/2000/svg"><path d="m193.710938 377.765625-16.035157 34.480469-46.40625 99.753906h-99.910156l46.40625-99.753906 16.035156-34.480469zm0 0" fill="#f7d360"/><path d="m478.589844 512h-99.898438l-46.40625-99.753906-16.039062-34.480469h99.902344l16.035156 34.480469zm0 0" fill="#f7d360"/><path d="m93.800781 377.765625 45.65625-24.699219 54.253907 24.699219-16.035157 34.480469h-99.910156zm0 0" fill="#e58e13"/><path d="m432.183594 412.246094h-99.898438l-16.039062-34.480469 72.988281-24.699219 26.914063 24.699219zm0 0" fill="#e58e13"/><path d="m509.957031 42.847656v292.070313c0 23.664062-19.191406 42.847656-42.855469 42.847656h-424.253906c-23.667968 0-42.847656-19.183594-42.847656-42.847656v-292.070313c0-23.667968 19.179688-42.847656 42.847656-42.847656h424.253906c23.664063 0 42.855469 19.179688 42.855469 42.847656zm0 0" fill="#e58e13"/><path d="m509.957031 42.847656v292.070313c0 23.664062-19.191406 42.847656-42.855469 42.847656h-410.453124c-23.667969 0-42.859376-19.183594-42.859376-42.847656v-292.070313c0-23.667968 19.191407-42.847656 42.859376-42.847656h410.453124c23.664063 0 42.855469 19.179688 42.855469 42.847656zm0 0" fill="#f7d360"/><path d="m41.628906 41.628906h426.695313v294.507813h-426.695313zm0 0" fill="#a5d498"/><path d="m454.796875 41.628906h13.527344v294.507813h-13.527344zm0 0" fill="#7fbf69"/><g fill="#e6e6e6"><path d="m120.277344 312.984375c-4.3125 0-7.804688-3.496094-7.804688-7.804687v-227.386719c0-4.3125 3.492188-7.808594 7.804688-7.808594s7.804687 3.496094 7.804687 7.808594v227.386719c0 4.308593-3.492187 7.804687-7.804687 7.804687zm0 0"/><path d="m427.796875 276.167969h-352.789063c-4.3125 0-7.804687-3.492188-7.804687-7.804688 0-4.308593 3.492187-7.804687 7.804687-7.804687h352.789063c4.3125 0 7.804687 3.496094 7.804687 7.804687 0 4.3125-3.492187 7.804688-7.804687 7.804688zm0 0"/><path d="m357.238281 225.074219c-22.46875 0-32.984375-21.035157-42.265625-39.59375-9.351562-18.703125-16.371094-30.960938-28.296875-30.960938-11.921875 0-18.945312 12.257813-28.296875 30.960938-9.28125 18.5625-19.796875 39.59375-42.261718 39.59375-22.460938 0-32.976563-21.035157-42.257813-39.59375-9.351563-18.703125-16.375-30.960938-28.296875-30.960938-4.3125 0-7.804688-3.496093-7.804688-7.808593 0-4.308594 3.492188-7.804688 7.804688-7.804688 22.464844 0 32.980469 21.035156 42.261719 39.59375 9.351562 18.703125 16.371093 30.964844 28.292969 30.964844 11.925781 0 18.945312-12.261719 28.300781-30.964844 9.277343-18.558594 19.796875-39.59375 42.257812-39.59375 22.464844 0 32.980469 21.035156 42.261719 39.59375 9.351562 18.703125 16.375 30.964844 28.300781 30.964844 11.921875 0 18.945313-12.257813 28.296875-30.964844 9.277344-18.558594 19.796875-39.59375 42.261719-39.59375 4.3125 0 7.804687 3.496094 7.804687 7.808594 0 4.308594-3.492187 7.804687-7.804687 7.804687-11.925781 0-18.949219 12.261719-28.300781 30.964844-9.277344 18.558594-19.796875 39.589844-42.257813 39.589844zm0 0"/><path d="m145.378906 105.492188c-2 0-3.996094-.761719-5.523437-2.289063l-19.578125-19.578125-19.578125 19.582031c-3.050781 3.046875-7.992188 3.046875-11.039063 0-3.050781-3.050781-3.050781-7.992187 0-11.039062l25.097656-25.097657c3.050782-3.050781 7.992188-3.050781 11.039063 0l25.097656 25.097657c3.050781 3.046875 3.050781 7.992187 0 11.039062-1.523437 1.523438-3.519531 2.285157-5.515625 2.285157zm0 0"/><path d="m407.902344 301.269531c-2 0-3.996094-.761719-5.519532-2.285156-3.050781-3.050781-3.050781-7.992187 0-11.039063l19.578126-19.578124-19.578126-19.582032c-3.050781-3.046875-3.050781-7.992187 0-11.039062 3.046876-3.046875 7.988282-3.046875 11.039063 0l25.097656 25.101562c1.464844 1.460938 2.285157 3.449219 2.285157 5.519532 0 2.066406-.820313 4.054687-2.285157 5.515624l-25.097656 25.101563c-1.523437 1.523437-3.523437 2.285156-5.519531 2.285156zm0 0"/><path d="m156.179688 312.984375c-4.308594 0-7.804688-3.496094-7.804688-7.804687v-8.714844c0-4.3125 3.496094-7.808594 7.804688-7.808594 4.3125 0 7.808593 3.496094 7.808593 7.808594v8.714844c0 4.308593-3.496093 7.804687-7.808593 7.804687zm0 0"/><path d="m187.179688 312.984375c-4.3125 0-7.808594-3.496094-7.808594-7.804687v-8.714844c0-4.3125 3.496094-7.808594 7.808594-7.808594 4.308593 0 7.804687 3.496094 7.804687 7.808594v8.714844c0 4.308593-3.496094 7.804687-7.804687 7.804687zm0 0"/><path d="m218.175781 312.984375c-4.3125 0-7.804687-3.496094-7.804687-7.804687v-8.714844c0-4.3125 3.492187-7.808594 7.804687-7.808594s7.804688 3.496094 7.804688 7.808594v8.714844c0 4.308593-3.492188 7.804687-7.804688 7.804687zm0 0"/><path d="m249.171875 312.984375c-4.3125 0-7.804687-3.496094-7.804687-7.804687v-8.714844c0-4.3125 3.492187-7.808594 7.804687-7.808594s7.804687 3.496094 7.804687 7.808594v8.714844c0 4.308593-3.492187 7.804687-7.804687 7.804687zm0 0"/><path d="m280.171875 312.984375c-4.3125 0-7.808594-3.496094-7.808594-7.804687v-8.714844c0-4.3125 3.496094-7.808594 7.808594-7.808594 4.308594 0 7.804687 3.496094 7.804687 7.808594v8.714844c0 4.308593-3.496093 7.804687-7.804687 7.804687zm0 0"/><path d="m311.167969 312.984375c-4.3125 0-7.804688-3.496094-7.804688-7.804687v-8.714844c0-4.3125 3.492188-7.808594 7.804688-7.808594s7.804687 3.496094 7.804687 7.808594v8.714844c0 4.308593-3.492187 7.804687-7.804687 7.804687zm0 0"/><path d="m342.164062 312.984375c-4.308593 0-7.804687-3.496094-7.804687-7.804687v-8.714844c0-4.3125 3.496094-7.808594 7.804687-7.808594 4.3125 0 7.808594 3.496094 7.808594 7.808594v8.714844c0 4.308593-3.496094 7.804687-7.808594 7.804687zm0 0"/><path d="m373.164062 312.984375c-4.3125 0-7.808593-3.496094-7.808593-7.804687v-8.714844c0-4.3125 3.496093-7.808594 7.808593-7.808594 4.308594 0 7.804688 3.496094 7.804688 7.808594v8.714844c0 4.308593-3.496094 7.804687-7.804688 7.804687zm0 0"/></g></svg>