<svg xmlns="http://www.w3.org/2000/svg" height="512pt" version="1.1" viewBox="0 0 512 512.001" width="512pt">
<g id="surface1">
<path d="M 433.929688 42.726562 C 425.027344 33.824219 413.191406 28.921875 400.601562 28.921875 C 388.011719 28.921875 376.175781 33.824219 367.273438 42.726562 L 285.585938 124.414062 L 226.414062 124.414062 L 144.726562 42.726562 C 135.828125 33.824219 123.992188 28.921875 111.402344 28.921875 C 98.808594 28.921875 86.972656 33.824219 78.074219 42.726562 C 59.695312 61.105469 59.695312 91.003906 78.070312 109.382812 L 171.03125 202.339844 C 173.84375 205.152344 177.660156 206.734375 181.636719 206.734375 L 330.367188 206.734375 C 334.34375 206.734375 338.160156 205.152344 340.96875 202.339844 L 433.925781 109.382812 C 452.308594 91.003906 452.308594 61.101562 433.929688 42.726562 Z M 433.929688 42.726562 " style=" stroke:none;fill-rule:nonzero;fill:rgb(100%,38.039216%,58.039216%);fill-opacity:1;" />
<path d="M 433.929688 42.726562 C 425.027344 33.824219 413.191406 28.921875 400.601562 28.921875 C 388.011719 28.921875 376.175781 33.824219 367.273438 42.726562 L 285.585938 124.414062 L 256 124.414062 L 256 206.734375 L 330.367188 206.734375 C 334.34375 206.734375 338.160156 205.152344 340.96875 202.339844 L 433.925781 109.382812 C 452.308594 91.003906 452.308594 61.101562 433.929688 42.726562 Z M 433.929688 42.726562 " style=" stroke:none;fill-rule:nonzero;fill:rgb(100%,22.352941%,69.411765%);fill-opacity:1;" />
<path d="M 320.269531 241 L 256 241 C 247.714844 241 241 247.714844 241 256 L 241 464.867188 C 241 490.855469 262.144531 512 288.136719 512 C 314.125 512 335.269531 490.855469 335.269531 464.867188 L 335.269531 256 C 335.269531 247.714844 328.550781 241 320.269531 241 Z M 320.269531 241 " style=" stroke:none;fill-rule:nonzero;fill:rgb(0%,20.392157%,36.078431%);fill-opacity:1;" />
<path d="M 256 0 C 213.429688 0 178.796875 34.636719 178.796875 77.207031 C 178.796875 119.777344 213.429688 154.414062 256 154.414062 C 298.570312 154.414062 333.207031 119.777344 333.207031 77.207031 C 333.207031 34.636719 298.570312 0 256 0 Z M 256 0 " style=" stroke:none;fill-rule:nonzero;fill:rgb(100%,80.784314%,74.901961%);fill-opacity:1;" />
<path d="M 223.867188 241 C 197.878906 241 176.734375 262.144531 176.734375 288.132812 L 176.734375 384.53125 C 176.734375 410.523438 197.878906 431.664062 223.867188 431.664062 C 249.855469 431.664062 271 410.523438 271 384.53125 L 271 288.132812 C 271 262.144531 249.855469 241 223.867188 241 Z M 223.867188 241 " style=" stroke:none;fill-rule:nonzero;fill:rgb(0%,35.294118%,69.411765%);fill-opacity:1;" />
<path d="M 47.136719 112.46875 C 21.144531 112.46875 0 133.609375 0 159.601562 L 0 464.867188 C 0 490.855469 21.144531 512 47.136719 512 C 73.125 512 94.269531 490.855469 94.269531 464.867188 L 94.269531 159.601562 C 94.269531 133.609375 73.125 112.46875 47.136719 112.46875 Z M 47.136719 112.46875 " style=" stroke:none;fill-rule:nonzero;fill:rgb(100%,81.960784%,16.862745%);fill-opacity:1;" />
<path d="M 464.867188 112.46875 C 438.878906 112.46875 417.734375 133.609375 417.734375 159.601562 L 417.734375 464.867188 C 417.734375 490.855469 438.878906 512 464.867188 512 C 490.855469 512 512 490.855469 512 464.867188 L 512 159.601562 C 512 133.609375 490.855469 112.46875 464.867188 112.46875 Z M 464.867188 112.46875 " style=" stroke:none;fill-rule:nonzero;fill:rgb(100%,55.686275%,11.372549%);fill-opacity:1;" />
<path d="M 497 176.734375 L 15 176.734375 C 6.714844 176.734375 0 183.449219 0 191.734375 L 0 256 C 0 264.285156 6.714844 271 15 271 L 497 271 C 505.285156 271 512 264.285156 512 256 L 512 191.734375 C 512 183.449219 505.285156 176.734375 497 176.734375 Z M 497 176.734375 " style=" stroke:none;fill-rule:nonzero;fill:rgb(100%,95.686275%,84.705882%);fill-opacity:1;" />
<path d="M 333.207031 77.207031 C 333.207031 34.636719 298.570312 0 256 0 L 256 154.414062 C 298.570312 154.414062 333.207031 119.777344 333.207031 77.207031 Z M 333.207031 77.207031 " style=" stroke:none;fill-rule:nonzero;fill:rgb(100%,65.490196%,56.078431%);fill-opacity:1;" />
<path d="M 497 176.734375 L 256 176.734375 L 256 271 L 497 271 C 505.285156 271 512 264.285156 512 256 L 512 191.734375 C 512 183.449219 505.285156 176.734375 497 176.734375 Z M 497 176.734375 " style=" stroke:none;fill-rule:nonzero;fill:rgb(100%,84.705882%,39.215686%);fill-opacity:1;" />
</g>
</svg>