<svg xmlns="http://www.w3.org/2000/svg" height="512pt" version="1.1" viewBox="0 0 512 512" width="512pt">
<g id="surface1">
<path d="M 512 256 C 512 282.050781 508.109375 307.191406 500.871094 330.871094 C 495.679688 347.878906 488.761719 364.140625 480.320312 379.441406 C 480.320312 379.441406 480.320312 379.441406 480.320312 379.449219 C 479.710938 380.558594 479.078125 381.671875 478.441406 382.769531 C 478.441406 382.769531 478.441406 382.769531 478.441406 382.78125 C 444.890625 441.550781 388.699219 485.738281 321.738281 503.46875 C 321.25 503.609375 320.75 503.738281 320.25 503.871094 C 314.78125 505.28125 309.238281 506.519531 303.640625 507.570312 C 295.828125 509.050781 287.890625 510.160156 279.839844 510.898438 C 271.988281 511.628906 264.039062 512 256 512 C 254.949219 512 253.910156 511.988281 252.859375 511.980469 C 232.121094 511.730469 211.980469 509.019531 192.710938 504.109375 L 192.699219 504.109375 C 116.050781 484.609375 53.210938 430.53125 21.769531 359.449219 C 7.769531 327.820312 0 292.820312 0 256 C 0 166.078125 46.371094 86.980469 116.5 41.320312 C 121.390625 38.128906 126.390625 35.121094 131.5 32.261719 C 168.351562 11.710938 210.808594 0 256 0 C 397.378906 0 512 114.621094 512 256 Z M 512 256 " style=" stroke:none;fill-rule:nonzero;fill:rgb(39.607843%,69.803922%,100%);fill-opacity:1;" />
<path d="M 512 256 C 512 282.050781 508.109375 307.191406 500.871094 330.871094 C 468.859375 435.71875 371.328125 512 256 512 C 151.441406 512 61.511719 449.300781 21.769531 359.449219 C 7.769531 327.820312 0 292.820312 0 256 C 0 209.78125 12.25 166.429688 33.679688 129 C 77.800781 206.070312 160.839844 258 256 258 C 351.160156 258 434.210938 206.070312 478.320312 129 C 499.75 166.429688 512 209.78125 512 256 Z M 512 256 " style=" stroke:none;fill-rule:nonzero;fill:rgb(20.784314%,61.176471%,93.72549%);fill-opacity:1;" />
<path d="M 449.191406 261.574219 C 419.25 270.144531 437.597656 321.738281 389.820312 323.617188 C 388.929688 323.660156 388.019531 323.679688 387.089844 323.679688 L 233.476562 323.679688 C 233.476562 289.382812 261.28125 261.574219 295.578125 261.574219 Z M 449.191406 261.574219 " style=" stroke:none;fill-rule:nonzero;fill:rgb(17.254902%,23.137255%,33.72549%);fill-opacity:1;" />
<path d="M 449.191406 261.574219 C 419.25 270.144531 437.597656 321.738281 389.820312 323.617188 L 320.257812 323.617188 C 320.257812 290.210938 346.617188 262.960938 379.6875 261.574219 Z M 449.191406 261.574219 " style=" stroke:none;fill-rule:nonzero;fill:rgb(28.627451%,36.470588%,45.882353%);fill-opacity:1;" />
<path d="M 321.738281 503.46875 C 321.25 503.609375 320.75 503.738281 320.25 503.871094 C 314.78125 505.28125 309.238281 506.519531 303.640625 507.570312 C 295.828125 509.050781 287.890625 510.160156 279.839844 510.898438 C 262.101562 499.488281 250.078125 479.988281 248.988281 457.601562 C 248.941406 456.5 248.910156 455.390625 248.910156 454.28125 L 300.359375 454.28125 C 300.359375 456.679688 300.488281 459.058594 300.730469 461.390625 C 300.761719 461.660156 300.789062 461.921875 300.820312 462.179688 C 302.71875 478.421875 310.390625 492.890625 321.738281 503.46875 Z M 321.738281 503.46875 " style=" stroke:none;fill-rule:nonzero;fill:rgb(17.254902%,23.137255%,33.72549%);fill-opacity:1;" />
<path d="M 321.738281 503.46875 C 321.25 503.609375 320.75 503.738281 320.25 503.871094 C 314.78125 505.28125 309.238281 506.519531 303.640625 507.570312 C 286.738281 497.78125 274.511719 480.839844 271.050781 460.890625 C 271.03125 460.800781 271.019531 460.699219 271 460.601562 C 270.648438 458.53125 270.398438 456.421875 270.238281 454.28125 L 300.359375 454.28125 C 300.359375 456.679688 300.488281 459.058594 300.730469 461.390625 C 300.761719 461.660156 300.789062 461.921875 300.820312 462.179688 C 302.71875 478.421875 310.390625 492.890625 321.738281 503.46875 Z M 321.738281 503.46875 " style=" stroke:none;fill-rule:nonzero;fill:rgb(28.627451%,36.470588%,45.882353%);fill-opacity:1;" />
<path d="M 480.320312 379.441406 C 480.320312 379.441406 480.320312 379.441406 480.320312 379.449219 C 480.230469 379.609375 480.140625 379.769531 480.050781 379.929688 C 479.53125 380.878906 478.988281 381.828125 478.441406 382.769531 C 478.441406 382.769531 478.441406 382.769531 478.441406 382.78125 C 466.601562 395.570312 453.421875 407.121094 439.140625 417.171875 C 435.871094 419.5 432.53125 421.71875 429.148438 423.859375 C 417.710938 431.140625 405.628906 437.488281 393.011719 442.800781 L 392.988281 442.800781 C 389.46875 444.300781 385.878906 445.730469 382.261719 447.050781 C 371.320312 451.089844 360.019531 454.359375 348.398438 456.828125 C 344.980469 457.558594 341.53125 458.21875 338.050781 458.789062 C 328.808594 460.351562 319.390625 461.378906 309.808594 461.878906 C 306.820312 462.019531 303.820312 462.128906 300.820312 462.179688 C 300.621094 462.179688 300.410156 462.191406 300.210938 462.191406 C 299.078125 462.210938 297.929688 462.210938 296.808594 462.210938 C 288.109375 462.210938 279.511719 461.769531 271.050781 460.890625 C 270.980469 460.878906 270.910156 460.878906 270.839844 460.871094 C 267.929688 460.570312 265.039062 460.210938 262.191406 459.820312 C 257.75 459.191406 253.351562 458.449219 248.988281 457.601562 C 243.800781 456.589844 238.671875 455.410156 233.609375 454.078125 C 232.398438 453.761719 231.191406 453.429688 229.988281 453.089844 C 228.78125 452.761719 227.578125 452.410156 226.378906 452.050781 C 224.03125 451.359375 221.710938 450.628906 219.398438 449.871094 C 219.308594 449.839844 219.21875 449.808594 219.140625 449.78125 C 215.628906 448.628906 212.160156 447.390625 208.71875 446.078125 C 207.628906 445.660156 206.550781 445.238281 205.480469 444.820312 C 204.25 444.328125 203.03125 443.828125 201.820312 443.328125 C 200.941406 442.960938 200.070312 442.589844 199.199219 442.21875 C 198.808594 442.050781 198.410156 441.878906 198.019531 441.710938 C 197.03125 441.28125 196.050781 440.839844 195.070312 440.398438 C 195.058594 440.390625 195.039062 440.390625 195.03125 440.378906 C 193.910156 439.871094 192.789062 439.359375 191.671875 438.828125 C 190.761719 438.410156 189.851562 437.96875 188.949219 437.53125 C 186.921875 436.550781 184.910156 435.539062 182.921875 434.5 C 182.28125 434.171875 181.640625 433.839844 181.011719 433.5 C 180.171875 433.050781 179.328125 432.601562 178.488281 432.148438 C 177.511719 431.609375 176.53125 431.070312 175.558594 430.519531 C 174.609375 429.980469 173.660156 429.441406 172.71875 428.898438 C 172.21875 428.609375 171.730469 428.320312 171.230469 428.019531 C 169.808594 427.191406 168.398438 426.339844 167.011719 425.46875 C 166.03125 424.871094 165.058594 424.261719 164.089844 423.640625 C 162.609375 422.699219 161.148438 421.75 159.699219 420.78125 C 158.53125 420 157.371094 419.210938 156.21875 418.410156 C 156.03125 418.28125 155.828125 418.148438 155.640625 418.011719 C 154.640625 417.320312 153.660156 416.628906 152.679688 415.921875 C 152.5 415.800781 152.328125 415.671875 152.160156 415.539062 C 151.078125 414.769531 150.011719 413.980469 148.949219 413.191406 C 148.878906 413.140625 148.808594 413.089844 148.75 413.039062 C 147.589844 412.171875 146.429688 411.289062 145.28125 410.398438 C 144.179688 409.550781 143.089844 408.691406 142.011719 407.820312 C 141.929688 407.761719 141.851562 407.699219 141.78125 407.628906 C 140.679688 406.75 139.589844 405.859375 138.511719 404.949219 C 138.339844 404.808594 138.171875 404.671875 138 404.519531 C 137.019531 403.699219 136.050781 402.871094 135.078125 402.039062 C 135.011719 401.980469 134.929688 401.921875 134.859375 401.851562 C 133.761719 400.898438 132.679688 399.941406 131.601562 398.96875 C 131.371094 398.769531 131.148438 398.558594 130.921875 398.351562 C 129.050781 396.671875 127.199219 394.941406 125.378906 393.191406 C 124.640625 392.480469 123.898438 391.761719 123.171875 391.03125 C 122.628906 390.511719 122.101562 389.980469 121.570312 389.441406 C 120.808594 388.679688 120.058594 387.921875 119.308594 387.140625 C 118.878906 386.699219 118.449219 386.261719 118.03125 385.808594 C 117.421875 385.179688 116.820312 384.550781 116.238281 383.921875 C 115.050781 382.648438 113.871094 381.371094 112.710938 380.078125 L 170.148438 400.859375 L 150.890625 379.191406 L 134.011719 360.191406 L 133.429688 359.558594 C 161.789062 334.578125 195.949219 316.019531 233.609375 306.078125 C 234.46875 305.851562 235.339844 305.628906 236.210938 305.421875 C 244.050781 303.449219 252.050781 301.839844 260.171875 300.640625 C 263.058594 300.210938 265.96875 299.828125 268.898438 299.511719 C 278.039062 298.480469 287.371094 297.949219 296.808594 297.949219 L 297.890625 297.949219 L 307.628906 298.191406 C 313.511719 298.429688 319.339844 298.890625 325.101562 299.558594 C 328.628906 299.960938 332.128906 300.441406 335.609375 301 L 335.628906 301 C 339.199219 301.53125 342.699219 302.171875 346.199219 302.878906 C 357.839844 305.230469 369.160156 308.398438 380.121094 312.339844 C 383.839844 313.660156 387.511719 315.070312 391.128906 316.570312 C 394.960938 318.160156 398.75 319.828125 402.480469 321.601562 C 411.21875 325.730469 419.679688 330.359375 427.820312 335.449219 C 431.320312 337.628906 434.769531 339.910156 438.128906 342.261719 C 453.46875 352.949219 467.539062 365.359375 480.089844 379.191406 C 480.160156 379.269531 480.238281 379.359375 480.320312 379.441406 Z M 480.320312 379.441406 " style=" stroke:none;fill-rule:nonzero;fill:rgb(28.627451%,36.470588%,45.882353%);fill-opacity:1;" />
<path d="M 480.320312 379.441406 C 480.320312 379.441406 480.320312 379.441406 480.320312 379.449219 C 480.230469 379.609375 480.140625 379.769531 480.050781 379.929688 C 479.53125 380.878906 478.988281 381.828125 478.441406 382.769531 C 478.441406 382.769531 478.441406 382.769531 478.441406 382.78125 C 478.351562 382.878906 478.25 382.980469 478.160156 383.078125 C 477.769531 382.800781 477.371094 382.519531 476.96875 382.238281 C 472.71875 379.269531 468.359375 376.390625 463.929688 373.628906 C 453.628906 367.191406 442.929688 361.339844 431.878906 356.109375 C 427.160156 353.871094 422.371094 351.761719 417.519531 349.75 C 412.941406 347.851562 408.300781 346.070312 403.601562 344.398438 C 389.730469 339.421875 375.421875 335.410156 360.691406 332.429688 C 356.269531 331.539062 351.839844 330.730469 347.320312 330.058594 L 347.300781 330.058594 C 342.898438 329.351562 338.46875 328.738281 334 328.230469 C 326.71875 327.390625 319.339844 326.808594 311.910156 326.5 L 299.589844 326.199219 L 298.21875 326.199219 C 286.28125 326.199219 274.480469 326.871094 262.921875 328.171875 C 259.210938 328.578125 255.53125 329.058594 251.878906 329.601562 C 250.308594 329.828125 248.738281 330.078125 247.171875 330.339844 C 246.148438 327.921875 245.050781 325.539062 243.890625 323.199219 C 240.898438 317.210938 237.449219 311.488281 233.609375 306.078125 C 234.46875 305.851562 235.339844 305.628906 236.210938 305.421875 C 244.050781 303.449219 252.050781 301.839844 260.171875 300.640625 C 263.058594 300.210938 265.96875 299.828125 268.898438 299.511719 C 278.039062 298.480469 287.371094 297.949219 296.808594 297.949219 L 297.890625 297.949219 L 307.628906 298.191406 C 313.511719 298.429688 319.339844 298.890625 325.101562 299.558594 C 328.628906 299.960938 332.128906 300.441406 335.609375 301 L 335.628906 301 C 339.199219 301.53125 342.699219 302.171875 346.199219 302.878906 C 357.839844 305.230469 369.160156 308.398438 380.121094 312.339844 C 383.839844 313.660156 387.511719 315.070312 391.128906 316.570312 C 394.960938 318.160156 398.75 319.828125 402.480469 321.601562 C 411.21875 325.730469 419.679688 330.359375 427.820312 335.449219 C 431.320312 337.628906 434.769531 339.910156 438.128906 342.261719 C 453.46875 352.949219 467.539062 365.359375 480.089844 379.191406 C 480.160156 379.269531 480.238281 379.359375 480.320312 379.441406 Z M 480.320312 379.441406 " style=" stroke:none;fill-rule:nonzero;fill:rgb(43.137255%,50.588235%,56.862745%);fill-opacity:1;" />
<path d="M 257.21875 379.191406 L 257.21875 380.078125 C 257.21875 402.210938 251.601562 423.011719 241.699219 441.148438 C 239.261719 445.628906 236.550781 449.949219 233.609375 454.078125 C 232.398438 453.761719 231.191406 453.429688 229.988281 453.089844 C 228.78125 452.761719 227.578125 452.410156 226.378906 452.050781 C 224.03125 451.359375 221.710938 450.628906 219.398438 449.871094 C 219.308594 449.839844 219.21875 449.808594 219.140625 449.78125 C 218.929688 449.710938 218.730469 449.640625 218.519531 449.570312 C 217.578125 449.261719 216.648438 448.941406 215.710938 448.621094 C 214.539062 448.210938 213.371094 447.800781 212.199219 447.371094 C 211.621094 447.160156 211.039062 446.949219 210.460938 446.730469 C 209.878906 446.519531 209.300781 446.300781 208.71875 446.078125 C 207.628906 445.660156 206.550781 445.238281 205.480469 444.820312 C 204.25 444.328125 203.03125 443.828125 201.820312 443.328125 C 200.941406 442.960938 200.070312 442.589844 199.199219 442.21875 C 198.808594 442.050781 198.410156 441.878906 198.019531 441.710938 C 197.03125 441.28125 196.050781 440.839844 195.070312 440.398438 C 195.058594 440.390625 195.039062 440.390625 195.03125 440.378906 C 193.910156 439.871094 192.789062 439.359375 191.671875 438.828125 C 190.761719 438.410156 189.851562 437.96875 188.949219 437.53125 C 186.921875 436.550781 184.910156 435.539062 182.921875 434.5 C 182.28125 434.171875 181.640625 433.839844 181.011719 433.5 C 180.171875 433.050781 179.328125 432.601562 178.488281 432.148438 C 177.511719 431.609375 176.53125 431.070312 175.558594 430.519531 C 174.609375 429.980469 173.660156 429.441406 172.71875 428.898438 C 172.21875 428.609375 171.730469 428.320312 171.230469 428.019531 C 169.808594 427.191406 168.398438 426.339844 167.011719 425.46875 C 166.089844 424.910156 165.191406 424.339844 164.28125 423.761719 C 164.21875 423.71875 164.148438 423.679688 164.089844 423.640625 C 162.609375 422.699219 161.148438 421.75 159.699219 420.78125 C 158.53125 420 157.371094 419.210938 156.21875 418.410156 C 156.03125 418.28125 155.828125 418.148438 155.640625 418.011719 C 154.640625 417.320312 153.660156 416.628906 152.679688 415.921875 C 152.5 415.800781 152.328125 415.671875 152.160156 415.539062 C 151.078125 414.769531 150.011719 413.980469 148.949219 413.191406 C 148.878906 413.140625 148.808594 413.089844 148.75 413.039062 C 148.628906 412.949219 148.511719 412.859375 148.390625 412.769531 C 147.351562 411.988281 146.308594 411.199219 145.28125 410.398438 C 144.179688 409.550781 143.089844 408.691406 142.011719 407.820312 C 141.929688 407.761719 141.851562 407.699219 141.78125 407.628906 C 140.679688 406.75 139.589844 405.859375 138.511719 404.949219 C 138.339844 404.808594 138.171875 404.671875 138 404.519531 C 137.019531 403.699219 136.050781 402.871094 135.078125 402.039062 C 135.011719 401.980469 134.929688 401.921875 134.859375 401.851562 C 133.761719 400.898438 132.679688 399.941406 131.601562 398.96875 C 131.359375 398.769531 131.128906 398.558594 130.898438 398.351562 C 129.96875 397.511719 129.050781 396.660156 128.128906 395.800781 C 127.210938 394.941406 126.289062 394.058594 125.378906 393.191406 C 124.640625 392.480469 123.898438 391.761719 123.171875 391.03125 C 122.628906 390.511719 122.101562 389.980469 121.570312 389.441406 C 120.808594 388.679688 120.058594 387.921875 119.308594 387.140625 C 118.878906 386.699219 118.449219 386.261719 118.03125 385.808594 C 117.421875 385.179688 116.820312 384.550781 116.238281 383.921875 C 115.789062 383.429688 115.328125 382.949219 114.878906 382.460938 C 114.148438 381.671875 113.429688 380.878906 112.710938 380.078125 L 170.148438 400.859375 L 150.890625 379.191406 L 141.261719 368.351562 L 134.011719 360.191406 L 133.429688 359.558594 C 161.789062 334.578125 195.949219 316.019531 233.609375 306.078125 C 237.449219 311.488281 240.898438 317.210938 243.890625 323.199219 C 245.050781 325.539062 246.148438 327.921875 247.171875 330.339844 C 253.53125 345.359375 257.101562 361.871094 257.21875 379.191406 Z M 257.21875 379.191406 " style=" stroke:none;fill-rule:nonzero;fill:rgb(89.411765%,92.156863%,97.254902%);fill-opacity:1;" />
<path d="M 247.171875 330.339844 C 238.511719 331.75 229.96875 333.53125 221.570312 335.648438 C 220.46875 335.910156 219.371094 336.191406 218.28125 336.480469 C 190.96875 343.691406 165.109375 354.480469 141.261719 368.351562 L 134.011719 360.191406 L 133.429688 359.558594 C 161.789062 334.578125 195.949219 316.019531 233.609375 306.078125 C 237.449219 311.488281 240.898438 317.210938 243.890625 323.199219 C 245.050781 325.539062 246.148438 327.921875 247.171875 330.339844 Z M 247.171875 330.339844 " style=" stroke:none;fill-rule:nonzero;fill:rgb(100%,100%,100%);fill-opacity:1;" />
<path d="M 257.21875 379.191406 L 257.21875 380.078125 C 257.21875 402.210938 251.601562 423.011719 241.699219 441.148438 C 239.261719 445.628906 236.550781 449.949219 233.609375 454.078125 C 232.398438 453.761719 231.191406 453.429688 229.988281 453.089844 C 228.78125 452.761719 227.578125 452.410156 226.378906 452.050781 C 224.03125 451.359375 221.710938 450.628906 219.398438 449.871094 C 219.308594 449.839844 219.21875 449.808594 219.140625 449.78125 C 218.929688 449.710938 218.730469 449.640625 218.519531 449.570312 C 217.578125 449.261719 216.648438 448.941406 215.710938 448.621094 C 214.539062 448.210938 213.371094 447.800781 212.199219 447.371094 C 211.621094 447.160156 211.039062 446.949219 210.460938 446.730469 C 209.878906 446.519531 209.300781 446.300781 208.71875 446.078125 C 207.628906 445.660156 206.550781 445.238281 205.480469 444.820312 C 204.25 444.328125 203.03125 443.828125 201.820312 443.328125 C 200.941406 442.960938 200.070312 442.589844 199.199219 442.21875 C 198.808594 442.050781 198.410156 441.878906 198.019531 441.710938 C 197.03125 441.28125 196.050781 440.839844 195.070312 440.398438 C 195.058594 440.390625 195.039062 440.390625 195.03125 440.378906 C 193.910156 439.871094 192.789062 439.359375 191.671875 438.828125 C 190.761719 438.410156 189.851562 437.96875 188.949219 437.53125 C 186.921875 436.550781 184.910156 435.539062 182.921875 434.5 C 182.28125 434.171875 181.640625 433.839844 181.011719 433.5 C 180.171875 433.050781 179.328125 432.601562 178.488281 432.148438 C 177.511719 431.609375 176.53125 431.070312 175.558594 430.519531 C 174.609375 429.980469 173.660156 429.441406 172.71875 428.898438 C 172.21875 428.609375 171.730469 428.320312 171.230469 428.019531 C 169.808594 427.191406 168.398438 426.339844 167.011719 425.46875 C 166.089844 424.910156 165.191406 424.339844 164.28125 423.761719 C 164.21875 423.71875 164.148438 423.679688 164.089844 423.640625 C 162.609375 422.699219 161.148438 421.75 159.699219 420.78125 C 158.53125 420 157.371094 419.210938 156.21875 418.410156 C 156.03125 418.28125 155.828125 418.148438 155.640625 418.011719 C 154.640625 417.320312 153.660156 416.628906 152.679688 415.921875 C 152.5 415.800781 152.328125 415.671875 152.160156 415.539062 C 151.078125 414.769531 150.011719 413.980469 148.949219 413.191406 C 148.878906 413.140625 148.808594 413.089844 148.75 413.039062 C 148.628906 412.949219 148.511719 412.859375 148.390625 412.769531 C 147.351562 411.988281 146.308594 411.199219 145.28125 410.398438 C 144.179688 409.550781 143.089844 408.691406 142.011719 407.820312 C 141.929688 407.761719 141.851562 407.699219 141.78125 407.628906 C 140.679688 406.75 139.589844 405.859375 138.511719 404.949219 C 138.339844 404.808594 138.171875 404.671875 138 404.519531 C 137.019531 403.699219 136.050781 402.871094 135.078125 402.039062 C 135.011719 401.980469 134.929688 401.921875 134.859375 401.851562 C 133.761719 400.898438 132.679688 399.941406 131.601562 398.96875 C 131.371094 398.769531 131.148438 398.558594 130.921875 398.351562 C 129.980469 397.511719 129.058594 396.660156 128.128906 395.800781 C 127.210938 394.941406 126.289062 394.058594 125.378906 393.191406 C 124.640625 392.480469 123.898438 391.761719 123.171875 391.03125 C 122.628906 390.511719 122.101562 389.980469 121.570312 389.441406 C 120.808594 388.679688 120.058594 387.921875 119.308594 387.140625 C 118.878906 386.699219 118.449219 386.261719 118.03125 385.808594 C 117.421875 385.179688 116.820312 384.550781 116.238281 383.921875 C 115.789062 383.429688 115.328125 382.949219 114.878906 382.460938 C 114.148438 381.671875 113.429688 380.878906 112.710938 380.078125 L 170.148438 400.859375 L 150.890625 379.191406 Z M 257.21875 379.191406 " style=" stroke:none;fill-rule:nonzero;fill:rgb(78.039216%,85.098039%,100%);fill-opacity:1;" />
<path d="M 480.089844 379.191406 C 480.089844 379.191406 480.078125 379.449219 480.050781 379.929688 C 479.53125 380.878906 478.988281 381.828125 478.441406 382.769531 C 478.441406 382.769531 478.441406 382.769531 478.441406 382.78125 C 466.601562 395.570312 453.421875 407.121094 439.140625 417.171875 C 435.871094 419.5 432.53125 421.71875 429.148438 423.859375 C 417.710938 431.140625 405.628906 437.488281 393.011719 442.800781 L 392.988281 442.800781 C 389.46875 444.300781 385.878906 445.730469 382.261719 447.050781 C 371.320312 451.089844 360.019531 454.359375 348.398438 456.828125 C 344.980469 457.558594 341.53125 458.21875 338.050781 458.789062 C 328.808594 460.351562 319.390625 461.378906 309.808594 461.878906 C 306.820312 462.019531 303.820312 462.128906 300.820312 462.179688 C 300.621094 462.179688 300.410156 462.191406 300.210938 462.191406 C 299.078125 462.210938 297.929688 462.210938 296.808594 462.210938 C 288.109375 462.210938 279.511719 461.769531 271.050781 460.890625 C 270.980469 460.878906 270.910156 460.878906 270.839844 460.871094 C 267.929688 460.570312 265.039062 460.210938 262.191406 459.820312 C 257.75 459.191406 253.351562 458.449219 248.988281 457.601562 C 243.800781 456.589844 238.671875 455.410156 233.609375 454.078125 C 236.550781 449.949219 239.261719 445.628906 241.699219 441.148438 C 251.601562 423.011719 257.21875 402.210938 257.21875 380.078125 L 257.21875 379.191406 Z M 480.089844 379.191406 " style=" stroke:none;fill-rule:nonzero;fill:rgb(17.254902%,23.137255%,33.72549%);fill-opacity:1;" />
<path d="M 292.847656 381.742188 C 292.847656 409.90625 285.265625 437.039062 270.839844 460.867188 C 267.929688 460.570312 265.039062 460.214844 262.191406 459.816406 C 277.074219 436.503906 284.933594 409.667969 284.933594 381.742188 C 284.933594 352.613281 276.382812 324.648438 260.175781 300.640625 C 263.0625 300.207031 265.972656 299.832031 268.902344 299.515625 C 284.59375 324.09375 292.847656 352.335938 292.847656 381.742188 Z M 292.847656 381.742188 " style=" stroke:none;fill-rule:nonzero;fill:rgb(17.254902%,23.137255%,33.72549%);fill-opacity:1;" />
<path d="M 297.894531 297.949219 C 315.308594 322.550781 324.511719 351.523438 324.511719 381.742188 C 324.511719 410.617188 316.121094 438.324219 300.210938 462.191406 C 303.414062 462.152344 306.621094 462.035156 309.808594 461.875 C 324.628906 437.8125 332.429688 410.320312 332.429688 381.742188 C 332.429688 351.820312 323.859375 323.066406 307.628906 298.1875 Z M 297.894531 297.949219 " style=" stroke:none;fill-rule:nonzero;fill:rgb(17.254902%,23.137255%,33.72549%);fill-opacity:1;" />
<path d="M 368.050781 381.742188 C 368.050781 408.34375 361.304688 434.011719 348.398438 456.828125 C 344.976562 457.5625 341.53125 458.214844 338.050781 458.789062 C 352.515625 435.714844 360.136719 409.253906 360.136719 381.742188 C 360.136719 352.75 351.664062 324.925781 335.636719 300.996094 C 339.195312 301.53125 342.699219 302.164062 346.203125 302.878906 C 360.53125 326.648438 368.050781 353.660156 368.050781 381.742188 Z M 368.050781 381.742188 " style=" stroke:none;fill-rule:nonzero;fill:rgb(17.254902%,23.137255%,33.72549%);fill-opacity:1;" />
<path d="M 405.652344 381.742188 C 405.652344 403.019531 401.339844 423.699219 393.007812 442.796875 L 392.988281 442.796875 C 389.464844 444.300781 385.882812 445.726562 382.261719 447.054688 C 392.433594 426.925781 397.738281 404.699219 397.738281 381.742188 C 397.738281 357.222656 391.679688 333.535156 380.121094 312.339844 C 383.84375 313.664062 387.503906 315.070312 391.128906 316.574219 C 400.6875 336.800781 405.652344 358.925781 405.652344 381.742188 Z M 405.652344 381.742188 " style=" stroke:none;fill-rule:nonzero;fill:rgb(17.254902%,23.137255%,33.72549%);fill-opacity:1;" />
<path d="M 443.257812 381.742188 C 443.257812 393.796875 441.871094 405.671875 439.140625 417.167969 C 435.875 419.503906 432.527344 421.722656 429.144531 423.859375 C 433.242188 410.320312 435.339844 396.171875 435.339844 381.742188 C 435.339844 365.8125 432.785156 350.234375 427.820312 335.453125 C 431.320312 337.628906 434.765625 339.90625 438.128906 342.261719 C 441.515625 355.027344 443.257812 368.265625 443.257812 381.742188 Z M 443.257812 381.742188 " style=" stroke:none;fill-rule:nonzero;fill:rgb(17.254902%,23.137255%,33.72549%);fill-opacity:1;" />
<path d="M 199.832031 360.289062 C 199.832031 371.765625 190.527344 381.070312 179.050781 381.070312 C 167.574219 381.070312 158.269531 371.765625 158.269531 360.289062 C 158.269531 348.816406 167.574219 339.511719 179.050781 339.511719 C 190.527344 339.511719 199.832031 348.816406 199.832031 360.289062 Z M 199.832031 360.289062 " style=" stroke:none;fill-rule:nonzero;fill:rgb(100%,100%,100%);fill-opacity:1;" />
<path d="M 182.554688 363.792969 L 188.15625 369.394531 C 183.128906 374.402344 174.976562 374.402344 169.949219 369.394531 C 164.941406 364.367188 164.941406 356.214844 169.949219 351.1875 C 174.976562 346.179688 183.128906 346.179688 188.15625 351.1875 L 179.050781 360.292969 Z M 182.554688 363.792969 " style=" stroke:none;fill-rule:nonzero;fill:rgb(28.627451%,36.470588%,45.882353%);fill-opacity:1;" />
<path d="M 179.050781 360.289062 L 182.554688 363.792969 C 180.613281 365.714844 177.488281 365.714844 175.546875 363.792969 C 173.628906 361.855469 173.628906 358.726562 175.546875 356.789062 C 177.488281 354.867188 180.613281 354.867188 182.554688 356.789062 Z M 179.050781 360.289062 " style=" stroke:none;fill-rule:nonzero;fill:rgb(17.254902%,23.137255%,33.72549%);fill-opacity:1;" />
<path d="M 131.5 32.261719 L 131.5 164 L 116.5 164 L 116.5 41.320312 C 121.390625 38.128906 126.390625 35.121094 131.5 32.261719 Z M 131.5 32.261719 " style=" stroke:none;fill-rule:nonzero;fill:rgb(17.254902%,23.137255%,33.72549%);fill-opacity:1;" />
<path d="M 171.878906 291.351562 C 171.289062 291.359375 170.691406 291.359375 170.089844 291.359375 C 140.78125 290.910156 117.5 266.449219 117.5 237.128906 L 117.5 131.699219 L 132.5 131.699219 L 132.5 237.21875 C 132.5 258.199219 149.019531 275.859375 170 276.351562 C 191.601562 276.859375 209.339844 259.429688 209.339844 237.941406 L 209.339844 202.269531 L 217.070312 220.640625 C 230.898438 253.53125 207.558594 290.71875 171.878906 291.351562 Z M 171.878906 291.351562 " style=" stroke:none;fill-rule:nonzero;fill:rgb(89.411765%,92.156863%,97.254902%);fill-opacity:1;" />
<path d="M 217.070312 220.636719 L 209.339844 202.269531 L 209.339844 203.898438 L 214.839844 232.347656 C 216.910156 243.746094 214.589844 255.648438 208.101562 265.597656 C 199.890625 278.207031 186.648438 285.589844 171.78125 285.847656 C 171.25 285.859375 170.710938 285.859375 170.179688 285.859375 C 144.160156 285.457031 123 263.597656 123 237.128906 L 123 131.699219 L 117.5 131.699219 L 117.5 237.128906 C 117.5 266.449219 140.78125 290.90625 170.089844 291.359375 C 170.691406 291.359375 171.289062 291.359375 171.878906 291.347656 C 207.558594 290.71875 230.898438 253.527344 217.070312 220.636719 Z M 217.070312 220.636719 " style=" stroke:none;fill-rule:nonzero;fill:rgb(78.039216%,85.098039%,100%);fill-opacity:1;" />
<path d="M 132.5 131.699219 L 132.5 208.671875 L 125.5 218 L 117.5 208 L 117.5 131.699219 Z M 132.5 131.699219 " style=" stroke:none;fill-rule:nonzero;fill:rgb(43.137255%,50.588235%,56.862745%);fill-opacity:1;" />
<path d="M 156.03125 117.808594 C 156.03125 122.585938 155.800781 127.308594 155.34375 131.957031 C 154.839844 137.226562 154.035156 142.390625 152.96875 147.480469 C 152.140625 151.453125 151.140625 155.371094 149.984375 159.214844 C 148.386719 164.523438 146.492188 169.714844 144.324219 174.738281 C 139.328125 186.316406 132.851562 197.105469 125.140625 206.878906 C 117.429688 197.105469 110.953125 186.316406 105.953125 174.738281 C 103.785156 169.714844 101.890625 164.523438 100.296875 159.214844 C 99.140625 155.371094 98.140625 151.453125 97.3125 147.480469 C 96.246094 142.390625 95.441406 137.226562 94.9375 131.957031 C 94.480469 127.308594 94.246094 122.585938 94.246094 117.808594 C 94.246094 116.132812 94.273438 114.457031 94.339844 112.785156 C 95.675781 73.738281 154.605469 73.738281 155.945312 112.785156 C 155.992188 114.457031 156.03125 116.132812 156.03125 117.808594 Z M 156.03125 117.808594 " style=" stroke:none;fill-rule:nonzero;fill:rgb(100%,81.960784%,7.058824%);fill-opacity:1;" />
<path d="M 138.335938 107.960938 C 138.335938 115.773438 132 122.109375 124.183594 122.109375 C 116.371094 122.109375 110.035156 115.773438 110.035156 107.960938 C 110.035156 100.144531 116.371094 93.808594 124.183594 93.808594 C 132 93.808594 138.335938 100.144531 138.335938 107.960938 Z M 138.335938 107.960938 " style=" stroke:none;fill-rule:nonzero;fill:rgb(100%,100%,100%);fill-opacity:1;" />
<path d="M 131.335938 107.960938 C 131.335938 111.910156 128.132812 115.109375 124.183594 115.109375 C 120.238281 115.109375 117.035156 111.910156 117.035156 107.960938 C 117.035156 104.011719 120.238281 100.8125 124.183594 100.8125 C 128.132812 100.8125 131.335938 104.011719 131.335938 107.960938 Z M 131.335938 107.960938 " style=" stroke:none;fill-rule:nonzero;fill:rgb(17.254902%,23.137255%,33.72549%);fill-opacity:1;" />
<path d="M 155.34375 131.957031 C 154.839844 137.226562 154.035156 142.390625 152.96875 147.480469 L 97.308594 147.480469 C 96.246094 142.390625 95.441406 137.226562 94.933594 131.957031 Z M 155.34375 131.957031 " style=" stroke:none;fill-rule:nonzero;fill:rgb(77.254902%,34.509804%,20.784314%);fill-opacity:1;" />
<path d="M 149.984375 159.214844 C 148.386719 164.523438 146.492188 169.714844 144.324219 174.738281 L 105.953125 174.738281 C 103.785156 169.714844 101.890625 164.523438 100.296875 159.214844 Z M 149.984375 159.214844 " style=" stroke:none;fill-rule:nonzero;fill:rgb(77.254902%,34.509804%,20.784314%);fill-opacity:1;" />
<path d="M 115.824219 289.199219 C 115.824219 297.886719 108.78125 304.929688 100.09375 304.929688 C 91.402344 304.929688 84.359375 297.886719 84.359375 289.199219 C 84.359375 280.507812 91.402344 273.464844 100.09375 273.464844 C 108.78125 273.464844 115.824219 280.507812 115.824219 289.199219 Z M 115.824219 289.199219 " style=" stroke:none;fill-rule:nonzero;fill:rgb(100%,100%,100%);fill-opacity:1;" />
<path d="M 281.429688 155.378906 C 281.429688 167.515625 271.59375 177.351562 259.460938 177.351562 C 247.324219 177.351562 237.488281 167.515625 237.488281 155.378906 C 237.488281 143.246094 247.324219 133.410156 259.460938 133.410156 C 271.59375 133.410156 281.429688 143.246094 281.429688 155.378906 Z M 281.429688 155.378906 " style=" stroke:none;fill-rule:nonzero;fill:rgb(100%,100%,100%);fill-opacity:1;" />
<path d="M 201.417969 67.464844 C 201.417969 79.597656 191.582031 89.433594 179.445312 89.433594 C 167.3125 89.433594 157.476562 79.597656 157.476562 67.464844 C 157.476562 55.332031 167.3125 45.496094 179.445312 45.496094 C 191.582031 45.496094 201.417969 55.332031 201.417969 67.464844 Z M 201.417969 67.464844 " style=" stroke:none;fill-rule:nonzero;fill:rgb(100%,100%,100%);fill-opacity:1;" />
</g>
</svg>