<svg xmlns="http://www.w3.org/2000/svg" height="512pt" version="1.1" viewBox="0 0 512 512" width="512pt">
<g id="surface1">
<path d="M 402.578125 0 L 432.578125 0 L 432.578125 37 L 402.578125 37 Z M 402.578125 0 " style=" stroke:none;fill-rule:nonzero;fill:rgb(0%,30.588235%,69.019608%);fill-opacity:1;" />
<path d="M 512 167.667969 L 482 167.667969 L 482 78 L 448.820312 78 L 448.820312 48 L 512 48 Z M 512 167.667969 " style=" stroke:none;fill-rule:nonzero;fill:rgb(0%,23.921569%,54.509804%);fill-opacity:1;" />
<path d="M 417.578125 0 L 432.578125 0 L 432.578125 37 L 417.578125 37 Z M 417.578125 0 " style=" stroke:none;fill-rule:nonzero;fill:rgb(0%,23.921569%,54.509804%);fill-opacity:1;" />
<path d="M 371.328125 27.980469 L 463.820312 27.980469 L 463.820312 441.328125 L 371.328125 441.328125 Z M 371.328125 27.980469 " style=" stroke:none;fill-rule:nonzero;fill:rgb(0%,53.72549%,100%);fill-opacity:1;" />
<path d="M 417.578125 27.980469 L 463.820312 27.980469 L 463.820312 441.328125 L 417.578125 441.328125 Z M 417.578125 27.980469 " style=" stroke:none;fill-rule:nonzero;fill:rgb(29.411765%,35.686275%,90.588235%);fill-opacity:1;" />
<path d="M 0 27.980469 L 338.109375 27.980469 L 338.109375 512 L 0 512 Z M 0 27.980469 " style=" stroke:none;fill-rule:nonzero;fill:rgb(76.470588%,78.039216%,96.078431%);fill-opacity:1;" />
<path d="M 74.710938 133 L 263.398438 133 L 263.398438 163 L 74.710938 163 Z M 74.710938 133 " style=" stroke:none;fill-rule:nonzero;fill:rgb(0%,53.72549%,100%);fill-opacity:1;" />
<path d="M 74.710938 197.5 L 263.398438 197.5 L 263.398438 227.5 L 74.710938 227.5 Z M 74.710938 197.5 " style=" stroke:none;fill-rule:nonzero;fill:rgb(0%,53.72549%,100%);fill-opacity:1;" />
<path d="M 74.710938 262 L 263.398438 262 L 263.398438 292 L 74.710938 292 Z M 74.710938 262 " style=" stroke:none;fill-rule:nonzero;fill:rgb(0%,53.72549%,100%);fill-opacity:1;" />
<path d="M 74.710938 326.5 L 263.398438 326.5 L 263.398438 356.5 L 74.710938 356.5 Z M 74.710938 326.5 " style=" stroke:none;fill-rule:nonzero;fill:rgb(0%,53.72549%,100%);fill-opacity:1;" />
<path d="M 74.710938 391 L 263.398438 391 L 263.398438 421 L 74.710938 421 Z M 74.710938 391 " style=" stroke:none;fill-rule:nonzero;fill:rgb(0%,53.72549%,100%);fill-opacity:1;" />
<path d="M 169.058594 27.980469 L 338.109375 27.980469 L 338.109375 512 L 169.058594 512 Z M 169.058594 27.980469 " style=" stroke:none;fill-rule:nonzero;fill:rgb(65.098039%,68.235294%,94.509804%);fill-opacity:1;" />
<path d="M 169.058594 133 L 263.398438 133 L 263.398438 163 L 169.058594 163 Z M 169.058594 133 " style=" stroke:none;fill-rule:nonzero;fill:rgb(29.411765%,35.686275%,90.588235%);fill-opacity:1;" />
<path d="M 169.058594 197.5 L 263.398438 197.5 L 263.398438 227.5 L 169.058594 227.5 Z M 169.058594 197.5 " style=" stroke:none;fill-rule:nonzero;fill:rgb(29.411765%,35.686275%,90.588235%);fill-opacity:1;" />
<path d="M 169.058594 262 L 263.398438 262 L 263.398438 292 L 169.058594 292 Z M 169.058594 262 " style=" stroke:none;fill-rule:nonzero;fill:rgb(29.411765%,35.686275%,90.588235%);fill-opacity:1;" />
<path d="M 169.058594 326.5 L 263.398438 326.5 L 263.398438 356.5 L 169.058594 356.5 Z M 169.058594 326.5 " style=" stroke:none;fill-rule:nonzero;fill:rgb(29.411765%,35.686275%,90.588235%);fill-opacity:1;" />
<path d="M 169.058594 391 L 263.398438 391 L 263.398438 421 L 169.058594 421 Z M 169.058594 391 " style=" stroke:none;fill-rule:nonzero;fill:rgb(29.411765%,35.686275%,90.588235%);fill-opacity:1;" />
<path d="M 59.710938 0 L 89.710938 0 L 89.710938 83.5 L 59.710938 83.5 Z M 59.710938 0 " style=" stroke:none;fill-rule:nonzero;fill:rgb(0%,30.588235%,69.019608%);fill-opacity:1;" />
<path d="M 122.605469 0 L 152.605469 0 L 152.605469 83.5 L 122.605469 83.5 Z M 122.605469 0 " style=" stroke:none;fill-rule:nonzero;fill:rgb(0%,30.588235%,69.019608%);fill-opacity:1;" />
<path d="M 185.507812 0 L 215.507812 0 L 215.507812 83.5 L 185.507812 83.5 Z M 185.507812 0 " style=" stroke:none;fill-rule:nonzero;fill:rgb(0%,23.921569%,54.509804%);fill-opacity:1;" />
<path d="M 248.40625 0 L 278.40625 0 L 278.40625 83.5 L 248.40625 83.5 Z M 248.40625 0 " style=" stroke:none;fill-rule:nonzero;fill:rgb(0%,23.921569%,54.509804%);fill-opacity:1;" />
<path d="M 463.820312 411.328125 L 463.820312 475.058594 L 442.238281 512 L 392.910156 512 L 371.328125 475.058594 L 371.328125 411.328125 Z M 463.820312 411.328125 " style=" stroke:none;fill-rule:nonzero;fill:rgb(100%,65.490196%,12.54902%);fill-opacity:1;" />
<path d="M 371.328125 143.589844 L 463.820312 143.589844 L 463.820312 173.589844 L 371.328125 173.589844 Z M 371.328125 143.589844 " style=" stroke:none;fill-rule:nonzero;fill:rgb(76.470588%,78.039216%,96.078431%);fill-opacity:1;" />
<path d="M 417.578125 143.589844 L 463.820312 143.589844 L 463.820312 173.589844 L 417.578125 173.589844 Z M 417.578125 143.589844 " style=" stroke:none;fill-rule:nonzero;fill:rgb(65.098039%,68.235294%,94.509804%);fill-opacity:1;" />
<path d="M 417.578125 411.328125 L 463.820312 411.328125 L 463.820312 475.058594 L 442.238281 512 L 417.578125 512 Z M 417.578125 411.328125 " style=" stroke:none;fill-rule:nonzero;fill:rgb(100%,52.941176%,0%);fill-opacity:1;" />
</g>
</svg>