<svg viewBox="-16 0 512 512" xmlns="http://www.w3.org/2000/svg"><path d="m390 45v407l-90 39.601562-46.800781 20.398438h-148.199219c-24.902344 0-45-20.101562-45-45v-346l-43.199219-53.402344 13.199219-67.597656h315c24.902344 0 45 20.097656 45 45zm0 0" fill="#faecd8"/><path d="m390 45v407l-90 39.601562v-491.601562h45c24.902344 0 45 20.097656 45 45zm0 0" fill="#f8e5ca"/><path d="m60 121h-60v-91c0-16.570312 13.429688-30 30-30s30 13.429688 30 30zm0 0" fill="#f8e5ca"/><path d="m450 422v45c0 24.898438-20.097656 45-45 45h-300c24.902344 0 45-20.101562 45-45v-45zm0 0" fill="#f4d7af"/><path d="m462.300781 184.601562-33 10.496094 3.300781 19.503906-54.902343 54.898438-35.398438 11.699219 5.097657 18.300781-47.398438 47.398438-16.199219 16.203124h-105.902343v-105.902343l82.5-82.800781 22.800781.902343 1.199219-24.601562 15.601562-15.601563 51.898438-52.199218c28.5-28.199219 77.703124-28.199219 106.203124 0 14.097657 14.101562 21.898438 33 21.898438 53.101562 0 18-6.300781 35.097656-17.699219 48.601562zm0 0" fill="#e63950"/><path d="m462.300781 184.601562-33 10.496094 3.300781 19.503906-54.902343 54.898438-35.398438 11.699219 5.097657 18.300781-47.398438 47.398438v-211.800782l51.898438-52.199218c28.5-28.199219 77.703124-28.199219 106.203124 0 14.097657 14.101562 21.898438 33 21.898438 53.101562 0 18-6.300781 35.097656-17.699219 48.601562zm0 0" fill="#cc2e43"/><path d="m300 422h150v45c0 24.898438-20.097656 45-45 45h-105zm0 0" fill="#f1c992"/><path d="m462.300781 184.601562c-1.199219 1.5-2.699219 2.996094-4.199219 4.496094l-25.503906 25.503906h-84.898437l-54.898438 54.898438h84.898438l-30.296875 30h-84.601563l-101.699219 101.699219-21.300781-21.300781 141.898438-141.898438-21.300781-63.601562 24-23.699219 15.601562 47.101562 5.398438 16.5 89.101562-88.800781 21 21-37.800781 38.101562zm0 0" fill="#804231"/><g fill="#663325"><path d="m347.402344 299.5h-47.402344v-30h77.699219zm0 0"/><path d="m462.300781 184.601562c-1.199219 1.5-2.699219 2.996094-4.199219 4.496094l-25.503906 25.503906h-84.898437l-47.699219 47.699219v-64.5l5.398438 16.5 89.101562-88.800781 21 21-37.800781 38.101562zm0 0"/></g></svg>