<?xml version="1.0" encoding="iso-8859-1"?>
<!-- Generator: Adobe Illustrator 19.0.0, SVG Export Plug-In . SVG Version: 6.00 Build 0)  -->
<svg version="1.1" id="Capa_1" xmlns="http://www.w3.org/2000/svg" xmlns:xlink="http://www.w3.org/1999/xlink" x="0px" y="0px"
	 viewBox="0 0 512 512" style="enable-background:new 0 0 512 512;" xml:space="preserve">
<path style="fill:#4B5055;" d="M430.88,318.054v157.117c0,3.35-0.449,6.606-1.305,9.695C425.296,500.458,410.957,512,394.05,512
	H118.013c-20.257,0-36.829-16.573-36.829-36.829V318.054c0-74.765,47.558-138.958,113.921-163.827
	c18.994-7.128,39.532-11.021,60.926-11.021c48.079,0,91.797,19.672,123.491,51.367C411.207,226.257,430.88,269.975,430.88,318.054z"
	/>
<path style="fill:#5A5F64;" d="M430.88,318.054v157.117c0,3.35-0.449,6.606-1.305,9.695H165.79
	c-20.257,0-36.829-16.573-36.829-36.829V290.92c0-55.166,25.903-104.591,66.144-136.693c18.994-7.128,39.532-11.021,60.926-11.021
	c48.079,0,91.797,19.672,123.491,51.367C411.207,226.257,430.88,269.975,430.88,318.054z"/>
<g>
	<path style="fill:#7D8287;" d="M208.256,308.706c0,9.299-5.322,17.345-13.097,21.258c-3.214,1.628-6.857,2.546-10.708,2.546
		c-13.139,0-23.805-10.655-23.805-23.805c0-13.15,10.666-23.805,23.805-23.805C197.555,284.901,208.256,295.519,208.256,308.706z"/>
	<path style="fill:#7D8287;" d="M327.615,332.511c-13.15,0-23.805-10.655-23.805-23.805c0-17.889,18.901-29.14,34.512-21.259
		C360.763,298.76,352.447,332.511,327.615,332.511z"/>
</g>
<g>
	<path style="fill:#A0A0A5;" d="M195.159,329.965c-17.442-8.756-17.469-33.747,0-42.517
		C212.582,296.218,212.624,321.174,195.159,329.965z"/>
	<path style="fill:#A0A0A5;" d="M338.322,329.965c-17.44-8.754-17.471-33.746,0-42.517
		C355.752,296.233,355.778,321.167,338.322,329.965z"/>
	<path style="fill:#A0A0A5;" d="M316.291,416.721v41.912c0,6.888-5.636,12.523-12.523,12.523h-97.286
		c-6.888,0-12.523-5.636-12.523-12.523v-41.912c0-6.888,5.636-12.523,12.523-12.523h97.286
		C310.656,404.197,316.291,409.834,316.291,416.721z"/>
</g>
<g>
	<path style="fill:#EBEBF0;" d="M240.639,405.283v64.798c0,0.365-0.021,0.72-0.083,1.075h-15.487
		c-0.063-0.355-0.083-0.71-0.083-1.075v-64.798c0-0.365,0.021-0.731,0.083-1.085h15.487
		C240.619,404.552,240.639,404.917,240.639,405.283z"/>
	<path style="fill:#EBEBF0;" d="M285.265,470.082c0,0.365-0.021,0.72-0.083,1.075h-15.487c-0.063-0.355-0.083-0.71-0.083-1.075
		v-64.798c0-0.365,0.021-0.731,0.083-1.085h15.487C285.336,405.073,285.243,401.068,285.265,470.082z"/>
</g>
<path style="fill:#5A5F64;" d="M241.111,149.625c-3.543-2.478-4.407-7.358-1.93-10.9c18.759-26.877,17.638-25.103,17.638-25.364
	c0-0.265,0.835,1.105-14.327-20.627c-3.85-5.505-3.857-12.768-0.128-18.259l24.257-38.65c2.297-3.66,7.129-4.764,10.791-2.468
	c3.661,2.298,4.766,7.129,2.468,10.791c-26.28,41.867-24.808,39.262-24.558,39.617c12.138,18.601,17.152,21.335,17.152,29.597
	c0,8.402-4.721,10.473-20.463,34.334C249.53,151.242,244.651,152.099,241.111,149.625z"/>
<circle style="fill:#4B5055;" cx="262.292" cy="26.829" r="26.829"/>
<path style="fill:#5A5F64;" d="M182.792,168.65c-5.733-31.693-5.114-30.424-5.697-30.529l-24.482-4.333
	c-6.628-1.173-11.869-6.414-13.042-13.042l-8.502-44.728c-0.807-4.246,1.981-8.344,6.228-9.151c4.241-0.807,8.344,1.98,9.151,6.228
	c9.125,47.388,8.322,45.177,8.895,45.28l24.482,4.333c6.628,1.173,11.869,6.415,13.042,13.043l5.34,30.172
	c0.753,4.256-2.087,8.318-6.344,9.07C187.64,175.75,183.548,172.931,182.792,168.65z"/>
<circle style="fill:#4B5055;" cx="120.016" cy="73.189" r="26.829"/>
<path style="fill:#5A5F64;" d="M320.204,174.994c-4.257-0.753-7.098-4.814-6.344-9.07l5.339-30.171
	c1.174-6.629,6.415-11.871,13.043-13.044c26.674-5.087,24.59-3.681,24.923-5.097l9.955-42.869c0.979-4.211,5.193-6.838,9.395-5.854
	c4.211,0.979,6.832,5.185,5.854,9.395l-9.916,42.701c-1.255,6.514-6.451,11.646-12.998,12.805
	c-25.561,4.647-24.735,4.106-24.84,4.692l-5.339,30.17C328.518,172.925,324.431,175.75,320.204,174.994z"/>
<circle style="fill:#4B5055;" cx="392.056" cy="73.189" r="26.829"/>
<path style="fill:#A0A0A5;" d="M411.391,352.563c-3.479-0.033-6.274-2.882-6.241-6.362l0.167-17.262
	c1.452-149.975-162.365-208.464-254.481-117.022c-28.999,28.787-44.969,66.969-44.969,107.515v26.831
	c0,3.48-2.821,6.301-6.301,6.301s-6.301-2.821-6.301-6.301v-26.831c0-43.929,17.293-85.288,48.693-116.458
	c99.788-99.057,277.526-35.693,275.963,126.088l-0.167,17.263C417.721,349.667,415.045,352.563,411.391,352.563z"/>
<path style="fill:#EBEBF0;" d="M200.398,479.528h-26.63c-53.239,0-96.552-43.312-96.552-96.551v-0.522
	c0-4.324,3.503-7.827,7.827-7.827s7.827,3.503,7.827,7.827v0.522c0,44.606,36.29,80.897,80.898,80.897h26.63
	c4.324,0,7.827,3.503,7.827,7.827C208.225,476.024,204.72,479.528,200.398,479.528z"/>
<g>
	<path style="fill:#D63030;" d="M126.082,343.316v49.068c0,4.201-0.697,8.243-1.991,12.015
		c-5.032,14.745-19.055,25.425-35.448,25.425c-10.292,0-19.652-4.209-26.441-10.998c-6.789-6.789-10.999-16.149-10.999-26.441
		v-49.068c0-17.459,12.115-32.23,28.356-36.313c2.908-0.739,5.957-1.126,9.083-1.126
		C109.235,305.877,126.082,322.723,126.082,343.316z"/>
	<path style="fill:#D63030;" d="M460.797,343.316v49.068c0,4.201-0.697,8.243-1.991,12.015
		c-5.032,14.745-19.055,25.425-35.448,25.425c-20.593,0-37.439-16.846-37.439-37.439v-49.068c0-20.596,16.853-37.439,37.439-37.439
		C443.951,305.877,460.797,322.723,460.797,343.316z"/>
</g>
<path style="fill:#F44545;" d="M411.671,262.598l-5.109,5.1c-8.2,8.226-22.066,5.585-26.827-5.041
	c-21.248-47.471-68.938-80.641-124.223-80.641c-55.293,0-102.982,33.17-124.23,80.641c-3.016,6.73-9.688,10.267-16.257,9.848
	c-8.644-0.535-12.081-6.978-15.678-9.906c-4.915-4.915-6.243-12.385-3.31-18.678c28.003-60.049,88.959-101.756,159.477-101.756
	c70.509,0,131.465,41.707,159.469,101.756C417.914,250.215,416.586,257.684,411.671,262.598z"/>
<path style="fill:#D63030;" d="M397.085,272.396c-6.915,0.907-14.165-2.63-17.35-9.738c-21.248-47.471-68.938-80.641-124.223-80.641
	c-55.293,0-102.982,33.17-124.23,80.641c-3.016,6.73-9.688,10.267-16.257,9.848l-0.025-0.025
	c-4.436-4.436-5.638-11.183-2.991-16.863c25.29-54.218,80.322-91.875,143.992-91.875s118.702,37.658,143.992,91.875
	C402.623,261.262,401.454,267.959,397.085,272.396z"/>
<g>
	<path style="fill:#F44545;" d="M126.082,343.316v49.068c0,4.201-0.697,8.243-1.991,12.015c-2.908,0.739-5.957,1.126-9.083,1.126
		c-10.292,0-19.652-4.209-26.441-10.998c-6.789-6.789-10.998-16.149-10.998-26.441v-49.067c0-4.201,0.697-8.243,1.991-12.015
		c2.908-0.739,5.957-1.126,9.083-1.126C109.235,305.877,126.082,322.723,126.082,343.316z"/>
	<path style="fill:#F44545;" d="M460.797,343.316v49.068c0,4.201-0.697,8.243-1.991,12.015c-2.908,0.739-5.957,1.126-9.083,1.126
		c-20.593,0-37.447-16.846-37.447-37.439c0.574-47.138-1.389-51.225,1.991-61.082c2.916-0.739,5.957-1.126,9.091-1.126
		C443.951,305.877,460.797,322.723,460.797,343.316z"/>
</g>
<path style="fill:#D63030;" d="M265.227,466.47v6.136c0,0.334-0.01,0.668-0.031,0.991c-0.511,11.772-10.311,21.238-22.198,21.238
	h-40.409c-12.221,0-22.229-9.998-22.229-22.229v-6.136c0-11.501,8.85-21.039,20.069-22.135c0.71-0.073,1.43-0.104,2.16-0.104h40.409
	C255.219,444.231,265.227,454.239,265.227,466.47z"/>
<path style="fill:#F44545;" d="M265.227,466.47v6.136c0,0.334-0.01,0.668-0.031,0.991c-0.71,0.073-1.43,0.104-2.16,0.104h-40.398
	c-12.231,0-22.239-9.998-22.239-22.229v-6.136c0-0.334,0.01-0.668,0.031-1.002c0.71-0.073,1.43-0.104,2.16-0.104h40.409
	C255.219,444.231,265.227,454.239,265.227,466.47z"/>
<g>
</g>
<g>
</g>
<g>
</g>
<g>
</g>
<g>
</g>
<g>
</g>
<g>
</g>
<g>
</g>
<g>
</g>
<g>
</g>
<g>
</g>
<g>
</g>
<g>
</g>
<g>
</g>
<g>
</g>
</svg>
